<?xml version="1.0" encoding="UTF-8"?>
<svg version="1.1" xmlns="http://www.w3.org/2000/svg" width="52" height="52">
<path d="M0 0 C3.09641217 1.39598966 5.9351897 3.13948768 8.8125 4.9375 C9.58787109 5.40607422 10.36324219 5.87464844 11.16210938 6.35742188 C16.7630964 9.7630964 16.7630964 9.7630964 18 11 C18.44890015 15.05078944 18.51157955 19.11570582 18.625 23.1875 C18.73134766 24.89389648 18.73134766 24.89389648 18.83984375 26.63476562 C19.02284017 34.88405151 19.02284017 34.88405151 16.15209961 38.01611328 C13.83400155 39.57023484 11.51990351 40.80607077 9 42 C7.47826172 42.97453125 7.47826172 42.97453125 5.92578125 43.96875 C5.06339844 44.4740625 4.20101562 44.979375 3.3125 45.5 C2.44238281 46.0259375 1.57226562 46.551875 0.67578125 47.09375 C-3.00475676 48.34029718 -4.48688534 47.60438034 -8 46 C-10.66247292 44.56853296 -13.2409439 43.0255927 -15.8125 41.4375 C-16.49248047 41.02564453 -17.17246094 40.61378906 -17.87304688 40.18945312 C-22.83047672 37.16952328 -22.83047672 37.16952328 -24 36 C-27.17810422 15.51888391 -27.17810422 15.51888391 -22.57177734 8.96923828 C-18.56631185 5.519157 -13.9246587 3.77072428 -9 2 C-5.39210874 -0.40526084 -4.26494298 -0.54983585 0 0 Z " fill="#111620" transform="translate(29,2)"/>
<path d="M0 0 C4.27744295 4.10055621 8.02110131 8.52462836 11.75 13.125 C12.63365234 14.19814453 12.63365234 14.19814453 13.53515625 15.29296875 C14.09589844 15.98261719 14.65664063 16.67226563 15.234375 17.3828125 C15.74194336 18.00559082 16.24951172 18.62836914 16.77246094 19.27001953 C18 21 18 21 19 24 C15.45632658 24.73240849 12.53340077 24.85036201 9 24 C3.86966734 20.16915131 0.42765884 15.77529656 -0.55859375 9.375 C-0.56207843 6.19697026 -0.40566614 3.15017289 0 0 Z " fill="#F44351" transform="translate(11,13)"/>
<path d="M0 0 C1.68800555 0.91573538 3.37537641 1.83264074 5.0625 2.75 C6.06667969 3.29140625 7.07085937 3.8328125 8.10546875 4.390625 C10.43291463 5.68469747 12.6426074 7.05463716 14.875 8.5 C17.79523005 10.32882567 17.79523005 10.32882567 20.23828125 9.3515625 C23.68420539 7.66515549 26.99903209 5.80643443 30.3125 3.875 C30.95767578 3.50246094 31.60285156 3.12992188 32.26757812 2.74609375 C33.84675945 1.83367787 35.42361864 0.91724491 37 0 C37.66 0.99 38.32 1.98 39 3 C36.2549092 4.65412761 33.5031388 6.29680834 30.75 7.9375 C29.97269531 8.40607422 29.19539063 8.87464844 28.39453125 9.35742188 C27.64042969 9.80537109 26.88632812 10.25332031 26.109375 10.71484375 C25.41811523 11.12855225 24.72685547 11.54226074 24.01464844 11.96850586 C21.92462024 13.03859422 20.33628939 13.73174781 18 14 C15.90942383 13.22729492 15.90942383 13.22729492 13.70703125 11.98046875 C12.91232422 11.53509766 12.11761719 11.08972656 11.29882812 10.63085938 C10.47833984 10.15455078 9.65785156 9.67824219 8.8125 9.1875 C7.98041016 8.72279297 7.14832031 8.25808594 6.29101562 7.77929688 C0.14363083 4.28726167 0.14363083 4.28726167 -1 2 C-0.67 1.34 -0.34 0.68 0 0 Z " fill="#C53945" transform="translate(7,36)"/>
<path d="M0 0 C0.33 0 0.66 0 1 0 C1.0810206 2.10353495 1.13919907 4.20795952 1.1875 6.3125 C1.22230469 7.48425781 1.25710937 8.65601563 1.29296875 9.86328125 C1 13 1 13 -0.1875 14.90625 C-2.63324391 16.38212995 -4.35204761 16.29797217 -7.1875 16.1875 C-8.53908203 16.14689453 -8.53908203 16.14689453 -9.91796875 16.10546875 C-10.60503906 16.07066406 -11.29210937 16.03585938 -12 16 C-10.57765365 14.10353819 -9.15498005 12.20733689 -7.73046875 10.3125 C-6.58055124 8.77581566 -5.4372569 7.23415191 -4.30078125 5.6875 C-3.76839844 4.965625 -3.23601563 4.24375 -2.6875 3.5 C-2.19636719 2.8296875 -1.70523438 2.159375 -1.19921875 1.46875 C-0.80347656 0.9840625 -0.40773438 0.499375 0 0 Z " fill="#F24250" transform="translate(40,13)"/>
<path d="M0 0 C3.3 1.65 6.6 3.3 10 5 C9.67 5.99 9.34 6.98 9 8 C5.40608886 6.66511872 2.24509304 5.03977277 -1 3 C-0.67 2.01 -0.34 1.02 0 0 Z " fill="#C13743" transform="translate(7,36)"/>
</svg>
